<?xml version="1.0" encoding="UTF-8" standalone="no"?>
<!DOCTYPE svg PUBLIC "-//W3C//DTD SVG 1.1//EN" "http://www.w3.org/Graphics/SVG/1.1/DTD/svg11.dtd">
<svg width="100%" height="100%" viewBox="0 0 256 256" version="1.1" xmlns="http://www.w3.org/2000/svg" xmlns:xlink="http://www.w3.org/1999/xlink" xml:space="preserve" xmlns:serif="http://www.serif.com/" style="fill-rule:evenodd;clip-rule:evenodd;stroke-linejoin:round;stroke-miterlimit:2;">
    <g transform="matrix(1,0,0,1,-79.8471,165.541)">
        <path d="M206.919,-116.593L176.939,-15.714L176.939,41.512L138.853,41.512L138.853,-15.714L109.947,-116.593L147.74,-116.593C153.664,-85.799 156.984,-65.063 157.701,-54.386C159.979,-71.248 163.788,-91.984 169.126,-116.593L206.919,-116.593Z" style="fill:url(#_Linear1);fill-rule:nonzero;"/>
        <path d="M305.747,-116.593L305.747,41.512L269.712,41.512L248.326,-30.363L248.326,41.512L213.951,41.512L213.951,-116.593L248.326,-116.593L271.372,-45.402L271.372,-116.593L305.747,-116.593Z" style="fill:url(#_Linear2);fill-rule:nonzero;"/>
    </g>
    <defs>
        <linearGradient id="_Linear1" x1="0" y1="0" x2="1" y2="0" gradientUnits="userSpaceOnUse" gradientTransform="matrix(-100,242,-242,-100,312.847,-158.541)"><stop offset="0" style="stop-color:rgb(4,255,89);stop-opacity:1"/><stop offset="0.46" style="stop-color:rgb(40,146,191);stop-opacity:1"/><stop offset="1" style="stop-color:rgb(50,115,220);stop-opacity:1"/></linearGradient>
        <linearGradient id="_Linear2" x1="0" y1="0" x2="1" y2="0" gradientUnits="userSpaceOnUse" gradientTransform="matrix(-100,242,-242,-100,312.847,-158.541)"><stop offset="0" style="stop-color:rgb(4,255,89);stop-opacity:1"/><stop offset="0.46" style="stop-color:rgb(40,146,191);stop-opacity:1"/><stop offset="1" style="stop-color:rgb(50,115,220);stop-opacity:1"/></linearGradient>
    </defs>
</svg>
